<?xml version="1.0" encoding="UTF-8" standalone="no"?><!DOCTYPE svg PUBLIC "-//W3C//DTD SVG 1.1//EN" "http://www.w3.org/Graphics/SVG/1.1/DTD/svg11.dtd"><svg width="100%" height="100%" viewBox="0 0 50 80" version="1.1" xmlns="http://www.w3.org/2000/svg" xmlns:xlink="http://www.w3.org/1999/xlink" xml:space="preserve" xmlns:serif="http://www.serif.com/" style="fill-rule:evenodd;clip-rule:evenodd;stroke-linecap:round;stroke-linejoin:round;stroke-miterlimit:1.5;"><rect id="eraser-3" x="8.277" y="54.92" width="33.447" height="28.08" style="fill:#ffc114;stroke:#000;stroke-width:1.58px;"/><rect id="eraser-2" x="8.277" y="23.447" width="33.447" height="31.473" style="fill:#e6e6e6;stroke:#000;stroke-width:1.6px;"/><path id="eraser-1" d="M9.949,23.447l0,-14.399c0,-1.378 0.548,-2.7 1.523,-3.675c0.975,-0.974 2.297,-1.522 3.675,-1.522c5.518,0 14.188,0 19.706,0c1.378,0 2.7,0.548 3.675,1.522c0.975,0.975 1.523,2.297 1.523,3.675c0,5.806 0,14.399 0,14.399l-30.102,0Z" style="fill:#ed99c9;stroke:#000;stroke-width:1.6px;"/><g id="light"><rect x="13.257" y="24.452" width="23.455" height="29.644" style="fill:url(#_Linear1);"/><rect x="11.373" y="55.852" width="27.223" height="29.648" style="fill:url(#_Linear2);"/></g><defs><linearGradient id="_Linear1" x1="0" y1="0" x2="1" y2="0" gradientUnits="userSpaceOnUse" gradientTransform="matrix(23.4548,0,0,29.6437,13.2566,39.2741)"><stop offset="0" style="stop-color:#fff;stop-opacity:0"/><stop offset="0.5" style="stop-color:#fff;stop-opacity:1"/><stop offset="1" style="stop-color:#fff;stop-opacity:0"/></linearGradient><linearGradient id="_Linear2" x1="0" y1="0" x2="1" y2="0" gradientUnits="userSpaceOnUse" gradientTransform="matrix(27.2227,0,0,29.6477,11.3727,70.6761)"><stop offset="0" style="stop-color:#fff;stop-opacity:0"/><stop offset="0.5" style="stop-color:#fff;stop-opacity:0.63"/><stop offset="1" style="stop-color:#fff;stop-opacity:0"/></linearGradient></defs></svg>