<?xml version="1.0" standalone="no"?><!DOCTYPE svg PUBLIC "-//W3C//DTD SVG 1.1//EN" "http://www.w3.org/Graphics/SVG/1.1/DTD/svg11.dtd"><svg t="1582857375168" class="icon" viewBox="0 0 1024 1024" version="1.1" xmlns="http://www.w3.org/2000/svg" p-id="1248" width="32" height="32" xmlns:xlink="http://www.w3.org/1999/xlink"><defs><style type="text/css"></style></defs><path d="M839.903934 287.115884c0-16.195255 13.096163-29.291419 29.291419-29.291419 16.195255 0 29.291419 13.096163 29.291418 29.291419v650.709363c0 47.985942-40.68808 86.074783-89.97364 86.074782H201.291028c-49.285561 0-89.973641-37.98887-89.973641-86.074782V287.115884c0-16.195255 13.096163-29.291419 29.291419-29.291419s29.291419 13.096163 29.291419 29.291419v650.709363c0 14.795665 13.596017 27.491946 31.490774 27.491945h607.222103c17.794787 0 31.490774-12.69628 31.490774-27.491945V287.115884zM42.937421 192.943474c-16.195255 0-29.291419-13.096163-29.291419-29.291419s13.096163-29.291419 29.291419-29.291418h936.825539c16.195255 0 29.291419 13.096163 29.291419 29.291418s-13.096163 29.291419-29.291419 29.291419H42.937421z" fill="#515151" p-id="1249"></path><path d="M334.651957 147.856683H276.06912V81.975984c0-45.086791 36.389339-81.975984 81.276189-81.975984h312.308503c44.88685 0 81.276189 36.889193 81.276189 81.975984v65.880699h-58.582837V81.975984c0-12.896222-10.396954-23.393147-22.793322-23.393147H357.44528c-12.396368 0-22.793322 10.496925-22.793323 23.393147v65.880699zM270.870643 407.680562c0-16.195255 13.096163-29.291419 29.291419-29.291418 16.195255 0 29.291419 13.096163 29.291418 29.291418v316.00742c0 16.195255-13.096163 29.291419-29.291418 29.291419-16.195255 0-29.291419-13.096163-29.291419-29.291419V407.680562zM465.213707 407.680562c0-16.195255 13.096163-29.291419 29.291418-29.291418 16.195255 0 29.291419 13.096163 29.291419 29.291418v316.00742c0 16.195255-13.096163 29.291419-29.291419 29.291419-16.195255 0-29.291419-13.096163-29.291418-29.291419V407.680562zM659.55677 407.680562c0-16.195255 13.096163-29.291419 29.291419-29.291418 16.195255 0 29.291419 13.096163 29.291419 29.291418v316.00742c0 16.195255-13.096163 29.291419-29.291419 29.291419-16.195255 0-29.291419-13.096163-29.291419-29.291419V407.680562z" fill="#515151" p-id="1250"></path></svg>